<mxfile host="app.diagrams.net" modified="2024-03-12T10:34:55.138Z" agent="Mozilla/5.0 (Windows NT 10.0; Win64; x64) AppleWebKit/537.36 (KHTML, like Gecko) Chrome/122.0.0.0 Safari/537.36" etag="DBpV1BMECFehZQSfEvNS" version="24.0.5" type="device">
  <diagram name="페이지-1" id="sN04eIHi0frPyyGTVI3K">
    <mxGraphModel dx="1434" dy="746" grid="1" gridSize="10" guides="1" tooltips="1" connect="1" arrows="1" fold="1" page="1" pageScale="1" pageWidth="827" pageHeight="1169" math="0" shadow="0">
      <root>
        <mxCell id="0" />
        <mxCell id="1" parent="0" />
        <mxCell id="2EkiNgrHUzZKY2oHPyTD-1" value="n입력&lt;div&gt;c=0;&lt;/div&gt;" style="shape=parallelogram;perimeter=parallelogramPerimeter;whiteSpace=wrap;html=1;fixedSize=1;" vertex="1" parent="1">
          <mxGeometry x="330" y="80" width="120" height="60" as="geometry" />
        </mxCell>
        <mxCell id="2EkiNgrHUzZKY2oHPyTD-7" style="edgeStyle=orthogonalEdgeStyle;rounded=0;orthogonalLoop=1;jettySize=auto;html=1;exitX=1;exitY=0.5;exitDx=0;exitDy=0;entryX=0.5;entryY=0;entryDx=0;entryDy=0;" edge="1" parent="1" source="2EkiNgrHUzZKY2oHPyTD-2" target="2EkiNgrHUzZKY2oHPyTD-4">
          <mxGeometry relative="1" as="geometry" />
        </mxCell>
        <mxCell id="2EkiNgrHUzZKY2oHPyTD-8" style="edgeStyle=orthogonalEdgeStyle;rounded=0;orthogonalLoop=1;jettySize=auto;html=1;exitX=0;exitY=0.5;exitDx=0;exitDy=0;entryX=0.5;entryY=0;entryDx=0;entryDy=0;" edge="1" parent="1" source="2EkiNgrHUzZKY2oHPyTD-2" target="2EkiNgrHUzZKY2oHPyTD-3">
          <mxGeometry relative="1" as="geometry" />
        </mxCell>
        <mxCell id="2EkiNgrHUzZKY2oHPyTD-2" value="n/2==0" style="rounded=0;whiteSpace=wrap;html=1;" vertex="1" parent="1">
          <mxGeometry x="330" y="220" width="120" height="60" as="geometry" />
        </mxCell>
        <mxCell id="2EkiNgrHUzZKY2oHPyTD-9" style="edgeStyle=orthogonalEdgeStyle;rounded=0;orthogonalLoop=1;jettySize=auto;html=1;exitX=0.5;exitY=1;exitDx=0;exitDy=0;entryX=0.5;entryY=0;entryDx=0;entryDy=0;" edge="1" parent="1" source="2EkiNgrHUzZKY2oHPyTD-3" target="2EkiNgrHUzZKY2oHPyTD-5">
          <mxGeometry relative="1" as="geometry" />
        </mxCell>
        <mxCell id="2EkiNgrHUzZKY2oHPyTD-3" value="짝수 출력" style="rounded=0;whiteSpace=wrap;html=1;" vertex="1" parent="1">
          <mxGeometry x="210" y="340" width="120" height="60" as="geometry" />
        </mxCell>
        <mxCell id="2EkiNgrHUzZKY2oHPyTD-10" style="edgeStyle=orthogonalEdgeStyle;rounded=0;orthogonalLoop=1;jettySize=auto;html=1;exitX=0.5;exitY=1;exitDx=0;exitDy=0;entryX=0.5;entryY=0;entryDx=0;entryDy=0;" edge="1" parent="1" source="2EkiNgrHUzZKY2oHPyTD-4" target="2EkiNgrHUzZKY2oHPyTD-5">
          <mxGeometry relative="1" as="geometry">
            <mxPoint x="480" y="500" as="targetPoint" />
          </mxGeometry>
        </mxCell>
        <mxCell id="2EkiNgrHUzZKY2oHPyTD-4" value="홀수 출력" style="rounded=0;whiteSpace=wrap;html=1;" vertex="1" parent="1">
          <mxGeometry x="450" y="340" width="120" height="60" as="geometry" />
        </mxCell>
        <mxCell id="2EkiNgrHUzZKY2oHPyTD-11" style="edgeStyle=orthogonalEdgeStyle;rounded=0;orthogonalLoop=1;jettySize=auto;html=1;exitX=1;exitY=0.5;exitDx=0;exitDy=0;entryX=1;entryY=0.5;entryDx=0;entryDy=0;" edge="1" parent="1" source="2EkiNgrHUzZKY2oHPyTD-5" target="2EkiNgrHUzZKY2oHPyTD-1">
          <mxGeometry relative="1" as="geometry">
            <Array as="points">
              <mxPoint x="640" y="520" />
              <mxPoint x="640" y="110" />
            </Array>
          </mxGeometry>
        </mxCell>
        <mxCell id="2EkiNgrHUzZKY2oHPyTD-14" value="T" style="edgeLabel;html=1;align=center;verticalAlign=middle;resizable=0;points=[];" vertex="1" connectable="0" parent="2EkiNgrHUzZKY2oHPyTD-11">
          <mxGeometry x="-0.7725" relative="1" as="geometry">
            <mxPoint as="offset" />
          </mxGeometry>
        </mxCell>
        <mxCell id="2EkiNgrHUzZKY2oHPyTD-12" style="edgeStyle=orthogonalEdgeStyle;rounded=0;orthogonalLoop=1;jettySize=auto;html=1;exitX=0.5;exitY=1;exitDx=0;exitDy=0;entryX=0.5;entryY=0;entryDx=0;entryDy=0;" edge="1" parent="1" source="2EkiNgrHUzZKY2oHPyTD-5" target="2EkiNgrHUzZKY2oHPyTD-6">
          <mxGeometry relative="1" as="geometry" />
        </mxCell>
        <mxCell id="2EkiNgrHUzZKY2oHPyTD-13" value="F" style="edgeLabel;html=1;align=center;verticalAlign=middle;resizable=0;points=[];" vertex="1" connectable="0" parent="2EkiNgrHUzZKY2oHPyTD-12">
          <mxGeometry y="2" relative="1" as="geometry">
            <mxPoint as="offset" />
          </mxGeometry>
        </mxCell>
        <mxCell id="2EkiNgrHUzZKY2oHPyTD-5" value="계속할지 입력&lt;div&gt;c==0&lt;/div&gt;" style="rounded=0;whiteSpace=wrap;html=1;" vertex="1" parent="1">
          <mxGeometry x="330" y="490" width="120" height="60" as="geometry" />
        </mxCell>
        <mxCell id="2EkiNgrHUzZKY2oHPyTD-6" value="종료" style="ellipse;whiteSpace=wrap;html=1;" vertex="1" parent="1">
          <mxGeometry x="330" y="630" width="120" height="80" as="geometry" />
        </mxCell>
      </root>
    </mxGraphModel>
  </diagram>
</mxfile>
